<mxfile host="app.diagrams.net" modified="2021-07-09T00:16:40.692Z" agent="5.0 (Windows)" etag="v5RdWlYnyNHD6lq599jI" version="14.8.5" type="github">
  <diagram id="1vCG38ZGS0L3dBNK_-Wv" name="第 1 页">
    <mxGraphModel dx="1422" dy="752" grid="1" gridSize="10" guides="1" tooltips="1" connect="1" arrows="1" fold="1" page="1" pageScale="1" pageWidth="827" pageHeight="1169" math="0" shadow="0">
      <root>
        <mxCell id="0" />
        <mxCell id="1" parent="0" />
        <mxCell id="42agQx02Lt03CiajxpjO-1" value="" style="rounded=0;whiteSpace=wrap;html=1;sketch=1;" vertex="1" parent="1">
          <mxGeometry x="180" y="140" width="120" height="60" as="geometry" />
        </mxCell>
      </root>
    </mxGraphModel>
  </diagram>
</mxfile>
